<?xml version="1.0" encoding="UTF-8"?>
<!DOCTYPE svg PUBLIC "-//W3C//DTD SVG 1.1//EN" "http://www.w3.org/Graphics/SVG/1.1/DTD/svg11.dtd">
<!-- Creator: CorelDRAW Home & Student X6 -->
<svg xmlns="http://www.w3.org/2000/svg" xml:space="preserve" width="482mm" height="287mm" version="1.1" style="shape-rendering:geometricPrecision; text-rendering:geometricPrecision; image-rendering:optimizeQuality; fill-rule:evenodd; clip-rule:evenodd"
viewBox="0 0 48200 28700"
 xmlns:xlink="http://www.w3.org/1999/xlink">
 <defs>
  <style type="text/css">
   <![CDATA[
    .str0 {stroke:red;stroke-width:7.62}
    .fil0 {fill:none}
   ]]>
  </style>
 </defs>
 <g id="Warstwa_x0020_1">
  <metadata id="CorelCorpID_0Corel-Layer"/>
  <path class="fil0 str0" d="M1600 7400c552,0 1000,448 1000,1000 0,552 -448,1000 -1000,1000 -552,0 -1000,-448 -1000,-1000 0,-552 448,-1000 1000,-1000zm-700 850l550 0 0 -550 300 0 0 550 550 0 0 300 -550 0 0 550 -300 0 0 -550 -550 0 0 -300z"/>
  <path class="fil0 str0" d="M7600 7400c552,0 1000,448 1000,1000 0,552 -448,1000 -1000,1000 -552,0 -1000,-448 -1000,-1000 0,-552 448,-1000 1000,-1000zm-700 850l550 0 0 -550 300 0 0 550 550 0 0 300 -550 0 0 550 -300 0 0 -550 -550 0 0 -300z"/>
  <path class="fil0 str0" d="M13600 7400c552,0 1000,448 1000,1000 0,552 -448,1000 -1000,1000 -552,0 -1000,-448 -1000,-1000 0,-552 448,-1000 1000,-1000zm-700 850l550 0 0 -550 300 0 0 550 550 0 0 300 -550 0 0 550 -300 0 0 -550 -550 0 0 -300z"/>
  <path class="fil0 str0" d="M19600 7400c552,0 1000,448 1000,1000 0,552 -448,1000 -1000,1000 -552,0 -1000,-448 -1000,-1000 0,-552 448,-1000 1000,-1000zm-700 850l550 0 0 -550 300 0 0 550 550 0 0 300 -550 0 0 550 -300 0 0 -550 -550 0 0 -300z"/>
  <path class="fil0 str0" d="M25600 7400c552,0 1000,448 1000,1000 0,552 -448,1000 -1000,1000 -552,0 -1000,-448 -1000,-1000 0,-552 448,-1000 1000,-1000zm-700 850l550 0 0 -550 300 0 0 550 550 0 0 300 -550 0 0 550 -300 0 0 -550 -550 0 0 -300z"/>
  <path class="fil0 str0" d="M31600 7400c552,0 1000,448 1000,1000 0,552 -448,1000 -1000,1000 -552,0 -1000,-448 -1000,-1000 0,-552 448,-1000 1000,-1000zm-700 850l550 0 0 -550 300 0 0 550 550 0 0 300 -550 0 0 550 -300 0 0 -550 -550 0 0 -300z"/>
  <path class="fil0 str0" d="M37600 7400c552,0 1000,448 1000,1000 0,552 -448,1000 -1000,1000 -552,0 -1000,-448 -1000,-1000 0,-552 448,-1000 1000,-1000zm-700 850l550 0 0 -550 300 0 0 550 550 0 0 300 -550 0 0 550 -300 0 0 -550 -550 0 0 -300z"/>
  <path class="fil0 str0" d="M43600 7400c552,0 1000,448 1000,1000 0,552 -448,1000 -1000,1000 -552,0 -1000,-448 -1000,-1000 0,-552 448,-1000 1000,-1000zm-700 850l550 0 0 -550 300 0 0 550 550 0 0 300 -550 0 0 550 -300 0 0 -550 -550 0 0 -300z"/>
  <path class="fil0 str0" d="M4600 8200c552,0 1000,448 1000,1000 0,552 -448,1000 -1000,1000 -552,0 -1000,-448 -1000,-1000 0,-552 448,-1000 1000,-1000zm-700 850l550 0 0 -550 300 0 0 550 550 0 0 300 -550 0 0 550 -300 0 0 -550 -550 0 0 -300z"/>
  <path class="fil0 str0" d="M10600 7400c552,0 1000,448 1000,1000 0,552 -448,1000 -1000,1000 -552,0 -1000,-448 -1000,-1000 0,-552 448,-1000 1000,-1000zm-700 850l550 0 0 -550 300 0 0 550 550 0 0 300 -550 0 0 550 -300 0 0 -550 -550 0 0 -300z"/>
  <path class="fil0 str0" d="M16600 7400c552,0 1000,448 1000,1000 0,552 -448,1000 -1000,1000 -552,0 -1000,-448 -1000,-1000 0,-552 448,-1000 1000,-1000zm-700 850l550 0 0 -550 300 0 0 550 550 0 0 300 -550 0 0 550 -300 0 0 -550 -550 0 0 -300z"/>
  <path class="fil0 str0" d="M22600 7400c552,0 1000,448 1000,1000 0,552 -448,1000 -1000,1000 -552,0 -1000,-448 -1000,-1000 0,-552 448,-1000 1000,-1000zm-700 850l550 0 0 -550 300 0 0 550 550 0 0 300 -550 0 0 550 -300 0 0 -550 -550 0 0 -300z"/>
  <path class="fil0 str0" d="M28600 7400c552,0 1000,448 1000,1000 0,552 -448,1000 -1000,1000 -552,0 -1000,-448 -1000,-1000 0,-552 448,-1000 1000,-1000zm-700 850l550 0 0 -550 300 0 0 550 550 0 0 300 -550 0 0 550 -300 0 0 -550 -550 0 0 -300z"/>
  <path class="fil0 str0" d="M34600 7400c552,0 1000,448 1000,1000 0,552 -448,1000 -1000,1000 -552,0 -1000,-448 -1000,-1000 0,-552 448,-1000 1000,-1000zm-700 850l550 0 0 -550 300 0 0 550 550 0 0 300 -550 0 0 550 -300 0 0 -550 -550 0 0 -300z"/>
  <path class="fil0 str0" d="M40600 7400c552,0 1000,448 1000,1000 0,552 -448,1000 -1000,1000 -552,0 -1000,-448 -1000,-1000 0,-552 448,-1000 1000,-1000zm-700 850l550 0 0 -550 300 0 0 550 550 0 0 300 -550 0 0 550 -300 0 0 -550 -550 0 0 -300z"/>
  <path class="fil0 str0" d="M46600 7400c552,0 1000,448 1000,1000 0,552 -448,1000 -1000,1000 -552,0 -1000,-448 -1000,-1000 0,-552 448,-1000 1000,-1000zm-700 850l550 0 0 -550 300 0 0 550 550 0 0 300 -550 0 0 550 -300 0 0 -550 -550 0 0 -300z"/>
  <path class="fil0 str0" d="M900 7200l1400 0 0 -300 300 0 0 -100 -200 -100 200 -200 0 -100c-331,0 -600,-1791 -600,-4000l100 0c-200,-200 -100,-800 100,-1000 -221,0 -400,-179 -400,-400l-50 0 0 3100 -300 0 0 -3100 -50 0c0,221 -179,400 -400,400 200,200 300,800 100,1000l100 0c0,2209 -269,4000 -600,4000l0 100 200 200 -200 100 0 100 300 0 0 300z"/>
  <path class="fil0 str0" d="M3900 8000l550 0 0 -3100 300 0 0 3100 550 0 0 -300 300 0 0 -100 -200 -100 200 -200 0 -100c-331,0 -600,-1791 -600,-4000l100 0c-200,-200 -100,-800 100,-1000 -221,0 -400,-179 -400,-400l0 -200 300 0 0 -400 -300 0 0 -200 -400 0 0 200 -300 0 0 400 300 0 0 200c0,221 -179,400 -400,400 200,200 300,800 100,1000l100 0c0,2209 -269,4000 -600,4000l0 100 200 200 -200 100 0 100 300 0 0 300z"/>
  <path class="fil0 str0" d="M6900 7200l1400 0 0 -300 300 0 0 -100 -200 -100 200 -200 0 -100c-321,0 -584,-1684 -600,-3800l99 0c-200,-200 -99,-800 101,-1000 -266,-67 -357,-133 -450,-170l0 2870 -300 0 0 -2879c-94,35 -161,107 -450,179 200,200 301,800 101,1000l99 0c-16,2116 -279,3800 -600,3800l0 100 200 200 -200 100 0 100 300 0 0 300z"/>
  <path class="fil0 str0" d="M9900 7200l550 0 0 -2900 300 0 0 2900 550 0 0 -300 300 0 0 -100 -200 -100 200 -200 0 -100c-321,0 -584,-1684 -600,-3800l99 0c-200,-200 -99,-800 101,-1000 -400,-100 -404,-200 -615,-200 -211,0 -185,100 -585,200 200,200 301,800 101,1000l99 0c-16,2116 -279,3800 -600,3800l0 100 200 200 -200 100 0 100 300 0 0 300z"/>
  <path class="fil0 str0" d="M15900 7200l550 0 0 -2700 300 0 0 2700 550 0 0 -300 300 0 0 -100 -200 -100 200 -200 0 -100c-306,0 -543,-1352 -593,-3295 88,-76 143,-192 143,-405 0,-214 -185,-425 -295,-592l-169 292 -87 -50 192 -332c-63,-83 -130,-156 -192,-218 -200,200 -550,606 -550,900 0,294 55,330 143,405 -51,1942 -288,3295 -593,3295l0 100 200 200 -200 100 0 100 300 0 0 300z"/>
  <path class="fil0 str0" d="M21900 7200l550 0 0 -2700 300 0 0 2700 550 0 0 -300 300 0 0 -100 -200 -100 200 -200 0 -100c-306,0 -543,-1352 -593,-3295 88,-76 143,-192 143,-405 0,-214 -185,-425 -295,-592l-169 292 -87 -50 192 -332c-63,-83 -130,-156 -192,-218 -200,200 -550,606 -550,900 0,294 55,330 143,405 -51,1942 -288,3295 -593,3295l0 100 200 200 -200 100 0 100 300 0 0 300z"/>
  <path class="fil0 str0" d="M12900 7200l1400 0 0 -300 300 0 0 -100 -200 -100 200 -200 0 -100c-306,0 -543,-1352 -593,-3295 88,-76 143,-158 143,-405 0,-248 -243,-544 -400,-735l0 2535 -300 0 0 -2535c-157,191 -400,488 -400,735 0,248 55,330 143,405 -51,1942 -288,3295 -593,3295l0 100 200 200 -200 100 0 100 300 0 0 300z"/>
  <path class="fil0 str0" d="M18900 7200l1400 0 0 -300 300 0 0 -100 -200 -100 200 -200 0 -100c-306,0 -543,-1352 -593,-3295 88,-76 143,-158 143,-405 0,-248 -243,-544 -400,-735l0 2535 -300 0 0 -2535c-157,191 -400,488 -400,735 0,248 55,330 143,405 -51,1942 -288,3295 -593,3295l0 100 200 200 -200 100 0 100 300 0 0 300z"/>
  <path class="fil0 str0" d="M27900 7200l550 0 0 -2600 300 0 0 2600 550 0 0 -300 300 0 0 -100 -200 -100 200 -200 0 -100c404,-888 -235,-1724 -497,-2571l397 171 300 -300c-268,-388 -329,-889 -542,-1194 79,-99 184,-175 305,-232 -207,-171 -287,-274 -763,-274 -476,0 -1200,537 -1200,1200 0,1133 700,2100 0,3200l0 100 200 200 -200 100 0 100 300 0 0 300z"/>
  <path class="fil0 str0" d="M33900 7200l550 0 0 -2600 300 0 0 2600 550 0 0 -300 300 0 0 -100 -200 -100 200 -200 0 -100c404,-888 -235,-1724 -497,-2571l397 171 300 -300c-268,-388 -329,-889 -542,-1194 79,-99 184,-175 305,-232 -207,-171 -287,-274 -763,-274 -476,0 -1200,537 -1200,1200 0,1133 700,2100 0,3200l0 100 200 200 -200 100 0 100 300 0 0 300z"/>
  <path class="fil0 str0" d="M24900 7200l1400 0 0 -300 300 0 0 -100 -200 -100 200 -200 0 -100c-51,-758 -426,-999 -388,-1898 117,-415 188,-857 188,-1102 0,-249 -73,-476 -193,-651 21,-250 76,-499 -7,-749 -211,163 -293,309 -348,451 -33,-14 -67,-25 -102,-33l0 2182 -300 0 0 -2182c-35,8 -69,19 -102,33 -55,-142 -137,-288 -348,-451 -83,250 -28,499 -7,749 -120,175 -193,403 -193,651 0,245 71,687 188,1102 38,899 -337,1140 -388,1898l0 100 200 200 -200 100 0 100 300 0 0 300z"/>
  <path class="fil0 str0" d="M30900 7200l1400 0 0 -300 300 0 0 -100 -200 -100 200 -200 0 -100c-51,-758 -426,-999 -388,-1898 117,-415 188,-857 188,-1102 0,-249 -73,-476 -193,-651 21,-250 76,-499 -7,-749 -211,163 -293,309 -348,451 -33,-14 -67,-25 -102,-33l0 2182 -300 0 0 -2182c-35,8 -69,19 -102,33 -55,-142 -137,-288 -348,-451 -83,250 -28,499 -7,749 -120,175 -193,403 -193,651 0,245 71,687 188,1102 38,899 -337,1140 -388,1898l0 100 200 200 -200 100 0 100 300 0 0 300z"/>
  <path class="fil0 str0" d="M36900 7200l1400 0 0 -300 300 0 0 -100 -200 -100 200 -200 0 -100c-331,0 -400,-1522 -400,-3400l0 -300 -300 0 0 300 -150 0 0 1950 -300 0 0 -1950 -150 0 0 -300 -300 0 0 300c0,1878 -69,3400 -400,3400l0 100 200 200 -200 100 0 100 300 0 0 300z"/>
  <path class="fil0 str0" d="M42900 7200l1400 0 0 -300 300 0 0 -100 -200 -100 200 -200 0 -100c-331,0 -400,-1522 -400,-3400l0 -300 -300 0 0 300 -150 0 0 1950 -300 0 0 -1950 -150 0 0 -300 -300 0 0 300c0,1878 -69,3400 -400,3400l0 100 200 200 -200 100 0 100 300 0 0 300z"/>
  <path class="fil0 str0" d="M39900 7200l550 0 0 -2250 300 0 0 2250 550 0 0 -300 300 0 0 -100 -200 -100 200 -200 0 -100c-331,0 -400,-1522 -400,-3400l0 -300 -300 0 0 300 -600 0 0 -300 -300 0 0 300c0,1878 -69,3400 -400,3400l0 100 200 200 -200 100 0 100 300 0 0 300z"/>
  <path class="fil0 str0" d="M45900 7200l550 0 0 -2250 300 0 0 2250 550 0 0 -300 300 0 0 -100 -200 -100 200 -200 0 -100c-331,0 -400,-1522 -400,-3400l0 -300 -300 0 0 300 -600 0 0 -300 -300 0 0 300c0,1878 -69,3400 -400,3400l0 100 200 200 -200 100 0 100 300 0 0 300z"/>
  <path class="fil0 str0" d="M47300 9600l-1400 0 0 300 -300 0 0 100 200 100 -200 200 0 100c301,0 536,537 591,2412 -57,81 -91,181 -91,288 0,224 147,413 350,477l0 -1977 300 0 0 1977c203,-64 350,-253 350,-477 0,-107 -34,-206 -91,-288 55,-1875 290,-2412 591,-2412l0 -100 -200 -200 200 -100 0 -100 -300 0 0 -300z"/>
  <path class="fil0 str0" d="M41300 9600l-1400 0 0 300 -300 0 0 100 200 100 -200 200 0 100c301,0 536,537 591,2412 -57,81 -91,181 -91,288 0,224 147,413 350,477l0 -1977 300 0 0 1977c203,-64 350,-253 350,-477 0,-107 -34,-206 -91,-288 55,-1875 290,-2412 591,-2412l0 -100 -200 -200 200 -100 0 -100 -300 0 0 -300z"/>
  <path class="fil0 str0" d="M35300 9600l-1400 0 0 300 -300 0 0 100 200 100 -200 200 0 100c301,0 536,537 591,2412 -57,81 -91,181 -91,288 0,224 147,413 350,477l0 -1977 300 0 0 1977c203,-64 350,-253 350,-477 0,-107 -34,-206 -91,-288 55,-1875 290,-2412 591,-2412l0 -100 -200 -200 200 -100 0 -100 -300 0 0 -300z"/>
  <path class="fil0 str0" d="M29300 9600l-1400 0 0 300 -300 0 0 100 200 100 -200 200 0 100c301,0 536,537 591,2412 -57,81 -91,181 -91,288 0,224 147,413 350,477l0 -1977 300 0 0 1977c203,-64 350,-253 350,-477 0,-107 -34,-206 -91,-288 55,-1875 290,-2412 591,-2412l0 -100 -200 -200 200 -100 0 -100 -300 0 0 -300z"/>
  <path class="fil0 str0" d="M23300 9600l-1400 0 0 300 -300 0 0 100 200 100 -200 200 0 100c301,0 536,537 591,2412 -57,81 -91,181 -91,288 0,224 147,413 350,477l0 -1977 300 0 0 1977c203,-64 350,-253 350,-477 0,-107 -34,-206 -91,-288 55,-1875 290,-2412 591,-2412l0 -100 -200 -200 200 -100 0 -100 -300 0 0 -300z"/>
  <path class="fil0 str0" d="M17300 9600l-1400 0 0 300 -300 0 0 100 200 100 -200 200 0 100c301,0 536,537 591,2412 -57,81 -91,181 -91,288 0,224 147,413 350,477l0 -1977 300 0 0 1977c203,-64 350,-253 350,-477 0,-107 -34,-206 -91,-288 55,-1875 290,-2412 591,-2412l0 -100 -200 -200 200 -100 0 -100 -300 0 0 -300z"/>
  <path class="fil0 str0" d="M11300 9600l-1400 0 0 300 -300 0 0 100 200 100 -200 200 0 100c301,0 536,537 591,2412 -57,81 -91,181 -91,288 0,224 147,413 350,477l0 -1977 300 0 0 1977c203,-64 350,-253 350,-477 0,-107 -34,-206 -91,-288 55,-1875 290,-2412 591,-2412l0 -100 -200 -200 200 -100 0 -100 -300 0 0 -300z"/>
  <path class="fil0 str0" d="M5300 10400l-1400 0 0 300 -300 0 0 100 200 100 -200 200 0 100c301,0 536,537 591,2412 -57,81 -91,181 -91,288 0,224 147,413 350,477l0 -1977 300 0 0 1977c203,-64 350,-253 350,-477 0,-107 -34,-206 -91,-288 55,-1875 290,-2412 591,-2412l0 -100 -200 -200 200 -100 0 -100 -300 0 0 -300z"/>
  <path class="fil0 str0" d="M44300 9600l-550 0 0 2000 -300 0 0 -2000 -550 0 0 300 -300 0 0 100 200 100 -200 200 0 100c301,0 536,537 591,2412 -57,81 -91,181 -91,288 0,276 224,500 500,500 276,0 500,-224 500,-500 0,-107 -34,-206 -91,-288 55,-1875 290,-2412 591,-2412l0 -100 -200 -200 200 -100 0 -100 -300 0 0 -300z"/>
  <path class="fil0 str0" d="M38300 9600l-550 0 0 2000 -300 0 0 -2000 -550 0 0 300 -300 0 0 100 200 100 -200 200 0 100c301,0 536,537 591,2412 -57,81 -91,181 -91,288 0,276 224,500 500,500 276,0 500,-224 500,-500 0,-107 -34,-206 -91,-288 55,-1875 290,-2412 591,-2412l0 -100 -200 -200 200 -100 0 -100 -300 0 0 -300z"/>
  <path class="fil0 str0" d="M32300 9600l-550 0 0 2000 -300 0 0 -2000 -550 0 0 300 -300 0 0 100 200 100 -200 200 0 100c301,0 536,537 591,2412 -57,81 -91,181 -91,288 0,276 224,500 500,500 276,0 500,-224 500,-500 0,-107 -34,-206 -91,-288 55,-1875 290,-2412 591,-2412l0 -100 -200 -200 200 -100 0 -100 -300 0 0 -300z"/>
  <path class="fil0 str0" d="M26300 9600l-550 0 0 2000 -300 0 0 -2000 -550 0 0 300 -300 0 0 100 200 100 -200 200 0 100c301,0 536,537 591,2412 -57,81 -91,181 -91,288 0,276 224,500 500,500 276,0 500,-224 500,-500 0,-107 -34,-206 -91,-288 55,-1875 290,-2412 591,-2412l0 -100 -200 -200 200 -100 0 -100 -300 0 0 -300z"/>
  <path class="fil0 str0" d="M20300 9600l-550 0 0 2000 -300 0 0 -2000 -550 0 0 300 -300 0 0 100 200 100 -200 200 0 100c301,0 536,537 591,2412 -57,81 -91,181 -91,288 0,276 224,500 500,500 276,0 500,-224 500,-500 0,-107 -34,-206 -91,-288 55,-1875 290,-2412 591,-2412l0 -100 -200 -200 200 -100 0 -100 -300 0 0 -300z"/>
  <path class="fil0 str0" d="M14300 9600l-550 0 0 2000 -300 0 0 -2000 -550 0 0 300 -300 0 0 100 200 100 -200 200 0 100c301,0 536,537 591,2412 -57,81 -91,181 -91,288 0,276 224,500 500,500 276,0 500,-224 500,-500 0,-107 -34,-206 -91,-288 55,-1875 290,-2412 591,-2412l0 -100 -200 -200 200 -100 0 -100 -300 0 0 -300z"/>
  <path class="fil0 str0" d="M8300 9600l-550 0 0 2000 -300 0 0 -2000 -550 0 0 300 -300 0 0 100 200 100 -200 200 0 100c301,0 536,537 591,2412 -57,81 -91,181 -91,288 0,276 224,500 500,500 276,0 500,-224 500,-500 0,-107 -34,-206 -91,-288 55,-1875 290,-2412 591,-2412l0 -100 -200 -200 200 -100 0 -100 -300 0 0 -300z"/>
  <path class="fil0 str0" d="M2300 9600l-550 0 0 2000 -300 0 0 -2000 -550 0 0 300 -300 0 0 100 200 100 -200 200 0 100c301,0 536,537 591,2412 -57,81 -91,181 -91,288 0,276 224,500 500,500 276,0 500,-224 500,-500 0,-107 -34,-206 -91,-288 55,-1875 290,-2412 591,-2412l0 -100 -200 -200 200 -100 0 -100 -300 0 0 -300z"/>
  <path class="fil0 str0" d="M46600 23500c-552,0 -1000,-448 -1000,-1000 0,-552 448,-1000 1000,-1000 552,0 1000,448 1000,1000 0,552 -448,1000 -1000,1000zm700 -850l-550 0 0 550 -300 0 0 -550 -550 0 0 -300 550 0 0 -550 300 0 0 550 550 0 0 300z"/>
  <path class="fil0 str0" d="M40600 23500c-552,0 -1000,-448 -1000,-1000 0,-552 448,-1000 1000,-1000 552,0 1000,448 1000,1000 0,552 -448,1000 -1000,1000zm700 -850l-550 0 0 550 -300 0 0 -550 -550 0 0 -300 550 0 0 -550 300 0 0 550 550 0 0 300z"/>
  <path class="fil0 str0" d="M34600 23500c-552,0 -1000,-448 -1000,-1000 0,-552 448,-1000 1000,-1000 552,0 1000,448 1000,1000 0,552 -448,1000 -1000,1000zm700 -850l-550 0 0 550 -300 0 0 -550 -550 0 0 -300 550 0 0 -550 300 0 0 550 550 0 0 300z"/>
  <path class="fil0 str0" d="M28600 23500c-552,0 -1000,-448 -1000,-1000 0,-552 448,-1000 1000,-1000 552,0 1000,448 1000,1000 0,552 -448,1000 -1000,1000zm700 -850l-550 0 0 550 -300 0 0 -550 -550 0 0 -300 550 0 0 -550 300 0 0 550 550 0 0 300z"/>
  <path class="fil0 str0" d="M22600 23500c-552,0 -1000,-448 -1000,-1000 0,-552 448,-1000 1000,-1000 552,0 1000,448 1000,1000 0,552 -448,1000 -1000,1000zm700 -850l-550 0 0 550 -300 0 0 -550 -550 0 0 -300 550 0 0 -550 300 0 0 550 550 0 0 300z"/>
  <path class="fil0 str0" d="M16600 23500c-552,0 -1000,-448 -1000,-1000 0,-552 448,-1000 1000,-1000 552,0 1000,448 1000,1000 0,552 -448,1000 -1000,1000zm700 -850l-550 0 0 550 -300 0 0 -550 -550 0 0 -300 550 0 0 -550 300 0 0 550 550 0 0 300z"/>
  <path class="fil0 str0" d="M10600 23500c-552,0 -1000,-448 -1000,-1000 0,-552 448,-1000 1000,-1000 552,0 1000,448 1000,1000 0,552 -448,1000 -1000,1000zm700 -850l-550 0 0 550 -300 0 0 -550 -550 0 0 -300 550 0 0 -550 300 0 0 550 550 0 0 300z"/>
  <path class="fil0 str0" d="M4600 23500c-552,0 -1000,-448 -1000,-1000 0,-552 448,-1000 1000,-1000 552,0 1000,448 1000,1000 0,552 -448,1000 -1000,1000zm700 -850l-550 0 0 550 -300 0 0 -550 -550 0 0 -300 550 0 0 -550 300 0 0 550 550 0 0 300z"/>
  <path class="fil0 str0" d="M43600 23500c-552,0 -1000,-448 -1000,-1000 0,-552 448,-1000 1000,-1000 552,0 1000,448 1000,1000 0,552 -448,1000 -1000,1000zm700 -850l-550 0 0 550 -300 0 0 -550 -550 0 0 -300 550 0 0 -550 300 0 0 550 550 0 0 300z"/>
  <path class="fil0 str0" d="M37600 23500c-552,0 -1000,-448 -1000,-1000 0,-552 448,-1000 1000,-1000 552,0 1000,448 1000,1000 0,552 -448,1000 -1000,1000zm700 -850l-550 0 0 550 -300 0 0 -550 -550 0 0 -300 550 0 0 -550 300 0 0 550 550 0 0 300z"/>
  <path class="fil0 str0" d="M31600 23500c-552,0 -1000,-448 -1000,-1000 0,-552 448,-1000 1000,-1000 552,0 1000,448 1000,1000 0,552 -448,1000 -1000,1000zm700 -850l-550 0 0 550 -300 0 0 -550 -550 0 0 -300 550 0 0 -550 300 0 0 550 550 0 0 300z"/>
  <path class="fil0 str0" d="M25600 23500c-552,0 -1000,-448 -1000,-1000 0,-552 448,-1000 1000,-1000 552,0 1000,448 1000,1000 0,552 -448,1000 -1000,1000zm700 -850l-550 0 0 550 -300 0 0 -550 -550 0 0 -300 550 0 0 -550 300 0 0 550 550 0 0 300z"/>
  <path class="fil0 str0" d="M19600 23500c-552,0 -1000,-448 -1000,-1000 0,-552 448,-1000 1000,-1000 552,0 1000,448 1000,1000 0,552 -448,1000 -1000,1000zm700 -850l-550 0 0 550 -300 0 0 -550 -550 0 0 -300 550 0 0 -550 300 0 0 550 550 0 0 300z"/>
  <path class="fil0 str0" d="M13600 23500c-552,0 -1000,-448 -1000,-1000 0,-552 448,-1000 1000,-1000 552,0 1000,448 1000,1000 0,552 -448,1000 -1000,1000zm700 -850l-550 0 0 550 -300 0 0 -550 -550 0 0 -300 550 0 0 -550 300 0 0 550 550 0 0 300z"/>
  <path class="fil0 str0" d="M7600 23500c-552,0 -1000,-448 -1000,-1000 0,-552 448,-1000 1000,-1000 552,0 1000,448 1000,1000 0,552 -448,1000 -1000,1000zm700 -850l-550 0 0 550 -300 0 0 -550 -550 0 0 -300 550 0 0 -550 300 0 0 550 550 0 0 300z"/>
  <path class="fil0 str0" d="M1600 23500c-552,0 -1000,-448 -1000,-1000 0,-552 448,-1000 1000,-1000 552,0 1000,448 1000,1000 0,552 -448,1000 -1000,1000zm700 -850l-550 0 0 550 -300 0 0 -550 -550 0 0 -300 550 0 0 -550 300 0 0 550 550 0 0 300z"/>
  <path class="fil0 str0" d="M47300 15100l-1400 0 0 300 -300 0 0 100 200 100 -200 200 0 100c331,0 600,1791 600,4000l-100 0c200,200 100,800 -100,1000 221,0 400,179 400,400l50 0 0 -3100 300 0 0 3100 50 0c0,-221 179,-400 400,-400 -200,-200 -300,-800 -100,-1000l-100 0c0,-2209 269,-4000 600,-4000l0 -100 -200 -200 200 -100 0 -100 -300 0 0 -300z"/>
  <path class="fil0 str0" d="M41300 15100l-1400 0 0 300 -300 0 0 100 200 100 -200 200 0 100c321,0 584,1684 600,3800l-99 0c200,200 99,800 -101,1000 266,67 357,133 450,170l0 -2870 300 0 0 2879c94,-35 161,-107 450,-179 -200,-200 -301,-800 -101,-1000l-99 0c16,-2116 279,-3800 600,-3800l0 -100 -200 -200 200 -100 0 -100 -300 0 0 -300z"/>
  <path class="fil0 str0" d="M38300 15100l-550 0 0 2900 -300 0 0 -2900 -550 0 0 300 -300 0 0 100 200 100 -200 200 0 100c321,0 584,1684 600,3800l-99 0c200,200 99,800 -101,1000 400,100 404,200 615,200 211,0 185,-100 585,-200 -200,-200 -301,-800 -101,-1000l-99 0c16,-2116 279,-3800 600,-3800l0 -100 -200 -200 200 -100 0 -100 -300 0 0 -300z"/>
  <path class="fil0 str0" d="M32300 15100l-550 0 0 2700 -300 0 0 -2700 -550 0 0 300 -300 0 0 100 200 100 -200 200 0 100c306,0 543,1352 593,3295 -88,76 -143,192 -143,405 0,214 185,425 295,592l169 -292 87 50 -192 332c63,83 130,156 192,218 200,-200 550,-606 550,-900 0,-294 -55,-330 -143,-405 51,-1942 288,-3295 593,-3295l0 -100 -200 -200 200 -100 0 -100 -300 0 0 -300z"/>
  <path class="fil0 str0" d="M26300 15100l-550 0 0 2700 -300 0 0 -2700 -550 0 0 300 -300 0 0 100 200 100 -200 200 0 100c306,0 543,1352 593,3295 -88,76 -143,192 -143,405 0,214 185,425 295,592l169 -292 87 50 -192 332c63,83 130,156 192,218 200,-200 550,-606 550,-900 0,-294 -55,-330 -143,-405 51,-1942 288,-3295 593,-3295l0 -100 -200 -200 200 -100 0 -100 -300 0 0 -300z"/>
  <path class="fil0 str0" d="M35300 15100l-1400 0 0 300 -300 0 0 100 200 100 -200 200 0 100c306,0 543,1352 593,3295 -88,76 -143,158 -143,405 0,248 243,544 400,735l0 -2535 300 0 0 2535c157,-191 400,-488 400,-735 0,-248 -55,-330 -143,-405 51,-1942 288,-3295 593,-3295l0 -100 -200 -200 200 -100 0 -100 -300 0 0 -300z"/>
  <path class="fil0 str0" d="M29300 15100l-1400 0 0 300 -300 0 0 100 200 100 -200 200 0 100c306,0 543,1352 593,3295 -88,76 -143,158 -143,405 0,248 243,544 400,735l0 -2535 300 0 0 2535c157,-191 400,-488 400,-735 0,-248 -55,-330 -143,-405 51,-1942 288,-3295 593,-3295l0 -100 -200 -200 200 -100 0 -100 -300 0 0 -300z"/>
  <path class="fil0 str0" d="M20300 15100l-550 0 0 2600 -300 0 0 -2600 -550 0 0 300 -300 0 0 100 200 100 -200 200 0 100c-404,888 235,1724 497,2571l-397 -171 -300 300c268,388 329,889 542,1194 -79,99 -184,175 -305,232 207,171 287,274 763,274 476,0 1200,-537 1200,-1200 0,-1133 -700,-2100 0,-3200l0 -100 -200 -200 200 -100 0 -100 -300 0 0 -300z"/>
  <path class="fil0 str0" d="M14300 15100l-550 0 0 2600 -300 0 0 -2600 -550 0 0 300 -300 0 0 100 200 100 -200 200 0 100c-404,888 235,1724 497,2571l-397 -171 -300 300c268,388 329,889 542,1194 -79,99 -184,175 -305,232 207,171 287,274 763,274 476,0 1200,-537 1200,-1200 0,-1133 -700,-2100 0,-3200l0 -100 -200 -200 200 -100 0 -100 -300 0 0 -300z"/>
  <path class="fil0 str0" d="M23300 15100l-1400 0 0 300 -300 0 0 100 200 100 -200 200 0 100c51,758 426,999 388,1898 -117,415 -188,857 -188,1102 0,249 73,476 193,651 -21,250 -76,499 7,749 211,-163 293,-309 348,-451 33,14 67,25 102,33l0 -2182 300 0 0 2182c35,-8 69,-19 102,-33 55,142 137,288 348,451 83,-250 28,-499 7,-749 120,-175 193,-403 193,-651 0,-245 -71,-687 -188,-1102 -38,-899 337,-1140 388,-1898l0 -100 -200 -200 200 -100 0 -100 -300 0 0 -300z"/>
  <path class="fil0 str0" d="M17300 15100l-1400 0 0 300 -300 0 0 100 200 100 -200 200 0 100c51,758 426,999 388,1898 -117,415 -188,857 -188,1102 0,249 73,476 193,651 -21,250 -76,499 7,749 211,-163 293,-309 348,-451 33,14 67,25 102,33l0 -2182 300 0 0 2182c35,-8 69,-19 102,-33 55,142 137,288 348,451 83,-250 28,-499 7,-749 120,-175 193,-403 193,-651 0,-245 -71,-687 -188,-1102 -38,-899 337,-1140 388,-1898l0 -100 -200 -200 200 -100 0 -100 -300 0 0 -300z"/>
  <path class="fil0 str0" d="M11300 15100l-1400 0 0 300 -300 0 0 100 200 100 -200 200 0 100c331,0 400,1522 400,3400l0 300 300 0 0 -300 150 0 0 -1950 300 0 0 1950 150 0 0 300 300 0 0 -300c0,-1878 69,-3400 400,-3400l0 -100 -200 -200 200 -100 0 -100 -300 0 0 -300z"/>
  <path class="fil0 str0" d="M5300 15100l-1400 0 0 300 -300 0 0 100 200 100 -200 200 0 100c331,0 400,1522 400,3400l0 300 300 0 0 -300 150 0 0 -1950 300 0 0 1950 150 0 0 300 300 0 0 -300c0,-1878 69,-3400 400,-3400l0 -100 -200 -200 200 -100 0 -100 -300 0 0 -300z"/>
  <path class="fil0 str0" d="M8300 15100l-550 0 0 2250 -300 0 0 -2250 -550 0 0 300 -300 0 0 100 200 100 -200 200 0 100c331,0 400,1522 400,3400l0 300 300 0 0 -300 600 0 0 300 300 0 0 -300c0,-1878 69,-3400 400,-3400l0 -100 -200 -200 200 -100 0 -100 -300 0 0 -300z"/>
  <path class="fil0 str0" d="M2300 15100l-550 0 0 2250 -300 0 0 -2250 -550 0 0 300 -300 0 0 100 200 100 -200 200 0 100c331,0 400,1522 400,3400l0 300 300 0 0 -300 600 0 0 300 300 0 0 -300c0,-1878 69,-3400 400,-3400l0 -100 -200 -200 200 -100 0 -100 -300 0 0 -300z"/>
  <path class="fil0 str0" d="M900 27700l1400 0 0 -300 300 0 0 -100 -200 -100 200 -200 0 -100c-301,0 -536,-537 -591,-2412 57,-81 91,-181 91,-288 0,-224 -147,-413 -350,-477l0 1977 -300 0 0 -1977c-203,64 -350,253 -350,477 0,107 34,206 91,288 -55,1875 -290,2412 -591,2412l0 100 200 200 -200 100 0 100 300 0 0 300z"/>
  <path class="fil0 str0" d="M6900 27700l1400 0 0 -300 300 0 0 -100 -200 -100 200 -200 0 -100c-301,0 -536,-537 -591,-2412 57,-81 91,-181 91,-288 0,-224 -147,-413 -350,-477l0 1977 -300 0 0 -1977c-203,64 -350,253 -350,477 0,107 34,206 91,288 -55,1875 -290,2412 -591,2412l0 100 200 200 -200 100 0 100 300 0 0 300z"/>
  <path class="fil0 str0" d="M12900 27700l1400 0 0 -300 300 0 0 -100 -200 -100 200 -200 0 -100c-301,0 -536,-537 -591,-2412 57,-81 91,-181 91,-288 0,-224 -147,-413 -350,-477l0 1977 -300 0 0 -1977c-203,64 -350,253 -350,477 0,107 34,206 91,288 -55,1875 -290,2412 -591,2412l0 100 200 200 -200 100 0 100 300 0 0 300z"/>
  <path class="fil0 str0" d="M18900 27700l1400 0 0 -300 300 0 0 -100 -200 -100 200 -200 0 -100c-301,0 -536,-537 -591,-2412 57,-81 91,-181 91,-288 0,-224 -147,-413 -350,-477l0 1977 -300 0 0 -1977c-203,64 -350,253 -350,477 0,107 34,206 91,288 -55,1875 -290,2412 -591,2412l0 100 200 200 -200 100 0 100 300 0 0 300z"/>
  <path class="fil0 str0" d="M24900 27700l1400 0 0 -300 300 0 0 -100 -200 -100 200 -200 0 -100c-301,0 -536,-537 -591,-2412 57,-81 91,-181 91,-288 0,-224 -147,-413 -350,-477l0 1977 -300 0 0 -1977c-203,64 -350,253 -350,477 0,107 34,206 91,288 -55,1875 -290,2412 -591,2412l0 100 200 200 -200 100 0 100 300 0 0 300z"/>
  <path class="fil0 str0" d="M30900 27700l1400 0 0 -300 300 0 0 -100 -200 -100 200 -200 0 -100c-301,0 -536,-537 -591,-2412 57,-81 91,-181 91,-288 0,-224 -147,-413 -350,-477l0 1977 -300 0 0 -1977c-203,64 -350,253 -350,477 0,107 34,206 91,288 -55,1875 -290,2412 -591,2412l0 100 200 200 -200 100 0 100 300 0 0 300z"/>
  <path class="fil0 str0" d="M36900 27700l1400 0 0 -300 300 0 0 -100 -200 -100 200 -200 0 -100c-301,0 -536,-537 -591,-2412 57,-81 91,-181 91,-288 0,-224 -147,-413 -350,-477l0 1977 -300 0 0 -1977c-203,64 -350,253 -350,477 0,107 34,206 91,288 -55,1875 -290,2412 -591,2412l0 100 200 200 -200 100 0 100 300 0 0 300z"/>
  <path class="fil0 str0" d="M42900 27700l1400 0 0 -300 300 0 0 -100 -200 -100 200 -200 0 -100c-301,0 -536,-537 -591,-2412 57,-81 91,-181 91,-288 0,-224 -147,-413 -350,-477l0 1977 -300 0 0 -1977c-203,64 -350,253 -350,477 0,107 34,206 91,288 -55,1875 -290,2412 -591,2412l0 100 200 200 -200 100 0 100 300 0 0 300z"/>
  <path class="fil0 str0" d="M3900 27700l550 0 0 -2000 300 0 0 2000 550 0 0 -300 300 0 0 -100 -200 -100 200 -200 0 -100c-301,0 -536,-537 -591,-2412 57,-81 91,-181 91,-288 0,-276 -224,-500 -500,-500 -276,0 -500,224 -500,500 0,107 34,206 91,288 -55,1875 -290,2412 -591,2412l0 100 200 200 -200 100 0 100 300 0 0 300z"/>
  <path class="fil0 str0" d="M9900 27700l550 0 0 -2000 300 0 0 2000 550 0 0 -300 300 0 0 -100 -200 -100 200 -200 0 -100c-301,0 -536,-537 -591,-2412 57,-81 91,-181 91,-288 0,-276 -224,-500 -500,-500 -276,0 -500,224 -500,500 0,107 34,206 91,288 -55,1875 -290,2412 -591,2412l0 100 200 200 -200 100 0 100 300 0 0 300z"/>
  <path class="fil0 str0" d="M15900 27700l550 0 0 -2000 300 0 0 2000 550 0 0 -300 300 0 0 -100 -200 -100 200 -200 0 -100c-301,0 -536,-537 -591,-2412 57,-81 91,-181 91,-288 0,-276 -224,-500 -500,-500 -276,0 -500,224 -500,500 0,107 34,206 91,288 -55,1875 -290,2412 -591,2412l0 100 200 200 -200 100 0 100 300 0 0 300z"/>
  <path class="fil0 str0" d="M21900 27700l550 0 0 -2000 300 0 0 2000 550 0 0 -300 300 0 0 -100 -200 -100 200 -200 0 -100c-301,0 -536,-537 -591,-2412 57,-81 91,-181 91,-288 0,-276 -224,-500 -500,-500 -276,0 -500,224 -500,500 0,107 34,206 91,288 -55,1875 -290,2412 -591,2412l0 100 200 200 -200 100 0 100 300 0 0 300z"/>
  <path class="fil0 str0" d="M27900 27700l550 0 0 -2000 300 0 0 2000 550 0 0 -300 300 0 0 -100 -200 -100 200 -200 0 -100c-301,0 -536,-537 -591,-2412 57,-81 91,-181 91,-288 0,-276 -224,-500 -500,-500 -276,0 -500,224 -500,500 0,107 34,206 91,288 -55,1875 -290,2412 -591,2412l0 100 200 200 -200 100 0 100 300 0 0 300z"/>
  <path class="fil0 str0" d="M33900 27700l550 0 0 -2000 300 0 0 2000 550 0 0 -300 300 0 0 -100 -200 -100 200 -200 0 -100c-301,0 -536,-537 -591,-2412 57,-81 91,-181 91,-288 0,-276 -224,-500 -500,-500 -276,0 -500,224 -500,500 0,107 34,206 91,288 -55,1875 -290,2412 -591,2412l0 100 200 200 -200 100 0 100 300 0 0 300z"/>
  <path class="fil0 str0" d="M39900 27700l550 0 0 -2000 300 0 0 2000 550 0 0 -300 300 0 0 -100 -200 -100 200 -200 0 -100c-301,0 -536,-537 -591,-2412 57,-81 91,-181 91,-288 0,-276 -224,-500 -500,-500 -276,0 -500,224 -500,500 0,107 34,206 91,288 -55,1875 -290,2412 -591,2412l0 100 200 200 -200 100 0 100 300 0 0 300z"/>
  <path class="fil0 str0" d="M45900 27700l550 0 0 -2000 300 0 0 2000 550 0 0 -300 300 0 0 -100 -200 -100 200 -200 0 -100c-301,0 -536,-537 -591,-2412 57,-81 91,-181 91,-288 0,-276 -224,-500 -500,-500 -276,0 -500,224 -500,500 0,107 34,206 91,288 -55,1875 -290,2412 -591,2412l0 100 200 200 -200 100 0 100 300 0 0 300z"/>
  <path class="fil0 str0" d="M44300 14300l-550 0 0 3100 -300 0 0 -3100 -550 0 0 300 -300 0 0 100 200 100 -200 200 0 100c331,0 600,1791 600,4000l-100 0c200,200 100,800 -100,1000 221,0 400,179 400,400l0 200 -300 0 0 400 300 0 0 200 400 0 0 -200 300 0 0 -400 -300 0 0 -200c0,-221 179,-400 400,-400 -200,-200 -300,-800 -100,-1000l-100 0c0,-2209 269,-4000 600,-4000l0 -100 -200 -200 200 -100 0 -100 -300 0 0 -300z"/>
 </g>
</svg>
